<?xml version="1.0" encoding="UTF-8" standalone="no"?>
<!-- Created with Inkscape (http://www.inkscape.org/) -->

<svg
   width="210mm"
   height="297mm"
   viewBox="0 0 210 297"
   version="1.1"
   id="svg16147"
   inkscape:version="1.2.1 (9c6d41e410, 2022-07-14)"
   sodipodi:docname="JuanMaestroDeObra.svg"
   xmlns:inkscape="http://www.inkscape.org/namespaces/inkscape"
   xmlns:sodipodi="http://sodipodi.sourceforge.net/DTD/sodipodi-0.dtd"
   xmlns="http://www.w3.org/2000/svg"
   xmlns:svg="http://www.w3.org/2000/svg">
  <sodipodi:namedview
     id="namedview16149"
     pagecolor="#ffffff"
     bordercolor="#999999"
     borderopacity="1"
     inkscape:showpageshadow="0"
     inkscape:pageopacity="0"
     inkscape:pagecheckerboard="0"
     inkscape:deskcolor="#d1d1d1"
     inkscape:document-units="mm"
     showgrid="false"
     inkscape:zoom="0.41380121"
     inkscape:cx="224.7456"
     inkscape:cy="795.06776"
     inkscape:window-width="1920"
     inkscape:window-height="1057"
     inkscape:window-x="-8"
     inkscape:window-y="-8"
     inkscape:window-maximized="1"
     inkscape:current-layer="layer1" />
  <defs
     id="defs16144">
    <inkscape:path-effect
       effect="perspective-envelope"
       up_left_point="54.330183,108.36598"
       up_right_point="104.78115,115.46546"
       down_left_point="54.330183,172.36598"
       down_right_point="112.52254,167.50845"
       id="path-effect16046"
       is_visible="true"
       lpeversion="1"
       deform_type="perspective"
       horizontal_mirror="false"
       vertical_mirror="false"
       overflow_perspective="false" />
  </defs>
  <g
     inkscape:label="Capa 1"
     inkscape:groupmode="layer"
     id="layer1">
    <g
       id="g14452"
       transform="matrix(1.5036811,0,0,2.0204965,103.88469,168.91133)">
      <g
         id="g16044"
         transform="matrix(0.98316449,-0.14111282,0.23660202,0.98316449,-137.84185,-95.417405)"
         inkscape:path-effect="#path-effect16046">
        <path
           style="fill:#ff8c78;stroke-width:0.125"
           d="M 95.886624,114.21382 62.16253,109.46815 c -1.563195,-0.21997 -2.830649,0.75586 -2.809188,2.18863 l 0.69702,46.53467 c 0.02809,1.87512 1.533517,3.34499 3.334244,3.26085 l 38.092474,-1.77986 c 1.32257,-0.0618 2.22074,-1.4038 2.01699,-2.9803 l -5.158025,-39.90887 c -0.161972,-1.25322 -1.255549,-2.40145 -2.449421,-2.56945 z"
           id="path13765"
           inkscape:original-d="M 105.1233,108.36598 H 62.740558 c -1.71625,0 -3.1125,1.39625 -3.1125,3.1125 v 48.74025 c 0,1.71625 1.39625,3.1125 3.1125,3.1125 H 105.1233 c 1.71625,0 3.1125,-1.39625 3.1125,-3.1125 v -48.74025 c 0,-1.71625 -1.39625,-3.1125 -3.1125,-3.1125 z" />
        <path
           style="fill:#df7a6e;stroke-width:0.125"
           d="m 62.205855,158.11706 -0.953173,-46.2105 c -0.02938,-1.42417 1.214515,-2.39554 2.756922,-2.17849 l -1.847074,-0.25992 c -1.563195,-0.21997 -2.830649,0.75586 -2.809188,2.18863 l 0.69702,46.53467 c 0.02809,1.87512 1.533517,3.34499 3.334244,3.26085 l 2.12354,-0.0992 c -1.77295,0.0827 -3.263923,-1.37593 -3.302291,-3.23602 z"
           id="path13767"
           inkscape:original-d="m 61.681058,160.21873 v -48.74025 c 0,-1.71625 1.39625,-3.1125 3.1125,-3.1125 h -2.053 c -1.71625,0 -3.1125,1.39625 -3.1125,3.1125 v 48.74025 c 0,1.71625 1.39625,3.1125 3.1125,3.1125 h 2.052875 c -1.716125,-1.3e-4 -3.112375,-1.39638 -3.112375,-3.1125 z" />
        <path
           style="fill:#ecedef;stroke-width:0.125"
           d="m 94.697392,117.13039 -30.526998,-3.91167 c -0.495928,-0.0636 -0.889428,0.25549 -0.877258,0.71393 l 1.111046,41.853 c 0.01542,0.58081 0.48167,1.03929 1.039302,1.02247 l 33.832336,-1.01996 c 0.469482,-0.0142 0.79441,-0.47641 0.72749,-1.03091 l -4.430428,-36.71158 c -0.05434,-0.45097 -0.445729,-0.86021 -0.87549,-0.91528 z"
           id="path13769"
           inkscape:original-d="M 102.90493,112.60423 H 64.859683 c -0.548625,0 -0.993375,0.44475 -0.993375,0.99337 v 44.50188 c 0,0.54862 0.44475,0.99337 0.993375,0.99337 H 102.9048 c 0.60338,0 1.09263,-0.48925 1.09263,-1.09262 v -44.30325 c 1.2e-4,-0.6035 -0.48913,-1.09275 -1.0925,-1.09275 z" />
        <path
           style="fill:#b3b9bf;stroke-width:0.125"
           d="m 70.647286,114.04865 -6.476892,-0.82993 c -0.495928,-0.0636 -0.889428,0.25549 -0.877258,0.71393 l 1.111046,41.853 c 0.01542,0.58081 0.48167,1.03929 1.039302,1.02247 l 7.258993,-0.21884 z"
           id="path13771"
           inkscape:original-d="m 72.210433,112.60423 h -7.35075 c -0.548625,0 -0.993375,0.44475 -0.993375,0.99337 v 44.50188 c 0,0.54862 0.44475,0.99337 0.993375,0.99337 h 7.35075 z" />
        <g
           id="g13779"
           transform="matrix(0.125,0,0,0.125,54.329433,108.36598)">
	<path
   style="fill:#68727e"
   d="M 94.730053,301.48101 26.242059,300.85879 C 11.850379,300.72805 0.006,312.27068 0.006,326.71737 c 0,14.58797 12.05418,26.39321 26.697788,26.18859 l 69.640881,-0.97309 c 13.580391,-0.18976 24.049511,-11.67852 23.494421,-25.49618 -0.54903,-13.69083 -11.74515,-24.83427 -25.109037,-24.95568 z"
   id="path13773"
   inkscape:original-d="M 92.719,322.109 H 24.906 c -13.73,0 -24.9,11.17 -24.9,24.9 0,13.73 11.17,24.9 24.9,24.9 h 67.812 c 13.73,0 24.9,-11.17 24.9,-24.9 0.001,-13.73 -11.169,-24.9 -24.899,-24.9 z" />

	<path
   style="fill:#68727e"
   d="m 90.840818,180.02907 -65.708252,-4.2351 C 11.346436,174.90541 0.006,184.84792 0.006,198.07834 c 0,13.3542 11.53262,24.81083 25.549753,25.41834 l 66.768735,2.89381 c 13.040982,0.56521 23.117842,-9.40101 22.607382,-22.10776 -0.50504,-12.5948 -11.24988,-23.42601 -24.091052,-24.25366 z"
   id="path13775"
   inkscape:original-d="M 92.719,194.961 H 24.906 c -13.73,0 -24.9,11.17 -24.9,24.9 0,13.73 11.17,24.9 24.9,24.9 h 67.812 c 13.73,0 24.9,-11.17 24.9,-24.9 0.001,-13.73 -11.169,-24.9 -24.899,-24.9 z" />

	<path
   style="fill:#68727e"
   d="m 24.502374,104.75714 64.123986,6.14807 c 12.5427,1.20257 22.25536,-7.44174 21.78436,-19.166345 C 109.9437,80.113456 99.615169,69.580732 87.257428,68.156124 L 24.113096,60.876806 C 10.883623,59.351704 0.006,67.912235 0.006,80.073748 c 0,12.270574 11.054318,23.394602 24.496374,24.683392 z"
   id="path13777"
   inkscape:original-d="m 24.906,117.612 h 67.812 c 13.73,0 24.9,-11.17 24.9,-24.9 0,-13.73 -11.17,-24.9 -24.9,-24.9 H 24.906 c -13.73,0 -24.9,11.17 -24.9,24.9 0,13.73 11.17,24.9 24.9,24.9 z" />

</g>
        <g
           id="g13787"
           transform="matrix(0.125,0,0,0.125,54.329433,108.36598)">
	<path
   style="fill:#55606e"
   d="m 17.531344,326.67632 c -0.08422,-14.33616 11.513174,-25.79207 25.68852,-25.66328 L 26.242059,300.85879 C 11.850379,300.72805 0.006,312.27068 0.006,326.71737 c 0,14.58797 12.05418,26.39321 26.697788,26.18859 l 17.270777,-0.24132 C 29.554921,352.86613 17.616382,341.15161 17.531344,326.67632 Z"
   id="path13781"
   inkscape:original-d="m 16.43,347.009 c 0,-13.73 11.17,-24.9 24.9,-24.9 H 24.906 c -13.73,0 -24.9,11.17 -24.9,24.9 0,13.73 11.17,24.9 24.9,24.9 H 41.33 c -13.73,0 -24.9,-11.17 -24.9,-24.9 z" />

	<path
   style="fill:#55606e"
   d="m 16.781196,198.98396 c -0.07718,-13.13784 11.036776,-23.01691 24.624369,-22.14115 L 25.132566,175.79397 C 11.346436,174.90541 0.006,184.84792 0.006,198.07834 c 0,13.3542 11.53262,24.81083 25.549753,25.41834 l 16.541965,0.71695 C 28.285821,223.61501 16.859093,212.24382 16.781196,198.98396 Z"
   id="path13783"
   inkscape:original-d="m 16.43,219.861 c 0,-13.73 11.17,-24.9 24.9,-24.9 H 24.906 c -13.73,0 -24.9,11.17 -24.9,24.9 0,13.73 11.17,24.9 24.9,24.9 H 41.33 c -13.73,0 -24.9,-11.17 -24.9,-24.9 z" />

	<path
   style="fill:#55606e"
   d="M 16.092624,81.773425 C 16.021636,69.689699 26.690834,61.173969 39.73746,62.677992 L 24.113096,60.876806 C 10.883623,59.351704 0.006,67.912235 0.006,80.073748 c 0,12.270574 11.054318,23.394602 24.496374,24.683392 l 15.872156,1.52179 C 27.121237,105.00823 16.164244,93.964747 16.092624,81.773425 Z"
   id="path13785"
   inkscape:original-d="m 16.43,92.712 c 0,-13.73 11.17,-24.9 24.9,-24.9 H 24.906 c -13.73,0 -24.9,11.17 -24.9,24.9 0,13.73 11.17,24.9 24.9,24.9 H 41.33 c -13.73,0 -24.9,-11.17 -24.9,-24.9 z" />

</g>
        <g
           id="g13795"
           transform="matrix(0.125,0,0,0.125,54.329433,108.36598)">
	<path
   style="fill:#b3b9bf"
   d="M 272.68141,115.12651 155.74469,103.13422 c -3.77542,-0.38719 -7.00711,-3.68996 -7.20553,-7.366789 -0.1979,-3.667031 2.69875,-6.300192 6.45732,-5.891463 l 116.44658,12.663082 c 3.34788,0.36407 6.33389,3.45824 6.68198,6.92014 0.34897,3.47058 -2.08333,6.01193 -5.44363,5.66732 z"
   id="path13789"
   inkscape:original-d="M 313.109,100.659 H 169.008 c -4.389,0 -7.947,-3.558 -7.947,-7.947 0,-4.389 3.558,-7.947 7.947,-7.947 h 144.101 c 4.39,0 7.947,3.558 7.947,7.947 0,4.389 -3.558,7.947 -7.947,7.947 z" />

	<path
   style="fill:#b3b9bf"
   d="m 276.72105,156.18815 -118.53286,-9.75539 c -3.83036,-0.31524 -7.11199,-3.65427 -7.3167,-7.44756 -0.20416,-3.78302 2.73187,-6.56719 6.54489,-6.22896 l 118.02944,10.4696 c 3.39041,0.30074 6.41899,3.42672 6.77741,6.99133 0.35933,3.57368 -2.09904,6.25106 -5.50218,5.97098 z"
   id="path13791"
   inkscape:original-d="M 313.109,151.518 H 169.008 c -4.389,0 -7.947,-3.558 -7.947,-7.947 0,-4.389 3.558,-7.947 7.947,-7.947 h 144.101 c 4.39,0 7.947,3.558 7.947,7.947 0,4.389 -3.558,7.947 -7.947,7.947 z" />

	<path
   style="fill:#b3b9bf"
   d="m 233.0861,195.5531 -72.37734,-4.44061 c -3.88691,-0.23848 -7.22007,-3.61442 -7.43137,-7.52979 -0.21072,-3.9046 2.76575,-6.84813 6.63482,-6.58513 l 72.05778,4.89824 c 3.59891,0.24465 6.76077,3.47896 7.07619,7.2339 0.31626,3.76487 -2.34667,6.64508 -5.96008,6.42339 z"
   id="path13793"
   inkscape:original-d="m 253.773,202.378 h -84.766 c -4.389,0 -7.947,-3.558 -7.947,-7.947 0,-4.389 3.558,-7.947 7.947,-7.947 h 84.766 c 4.39,0 7.947,3.558 7.947,7.947 0,4.389 -3.558,7.947 -7.947,7.947 z" />

</g>
        <path
           style="fill:#ffd791;stroke-width:0.125"
           d="m 89.03542,139.13725 c -0.05891,-0.26995 -0.227477,-0.51181 -0.456731,-0.65485 l -9.122325,-5.68839 c -0.345274,-0.21521 -0.75948,-0.18311 -1.012026,0.0792 -0.25336,0.26329 -0.281053,0.69338 -0.06631,1.04901 l 5.826349,9.65487 c 0.312624,0.51795 0.987597,0.62714 1.335885,0.21681 l 3.337653,-3.93224 c 0.158188,-0.18637 0.216348,-0.45415 0.157509,-0.72442 z"
           id="path13797"
           inkscape:original-d="m 92.227054,140.65098 c -0.0413,-0.30688 -0.22287,-0.57688 -0.49175,-0.73063 l -10.489246,-5.99387 c -0.389125,-0.22225 -0.8785,-0.15662 -1.19525,0.16 -0.316625,0.31663 -0.382375,0.80637 -0.16,1.19525 l 5.993876,10.48925 c 0.3195,0.559 1.10887,0.6655 1.56487,0.2095 l 4.49538,-4.49538 c 0.21887,-0.21887 0.32325,-0.52725 0.28212,-0.83412 z" />
        <path
           style="fill:#ecedef;stroke-width:0.125"
           d="m 88.760789,138.62914 -4.405156,5.14279 23.008987,23.28418 c 0.51977,0.52598 1.14975,0.78692 1.77135,0.73503 0.61825,-0.0516 1.15263,-0.40649 1.50538,-0.9961 l 0.88899,-1.48584 c 0.70895,-1.18529 0.4387,-2.99521 -0.59566,-4.05099 z"
           id="path13799"
           inkscape:original-d="m 91.944934,140.08048 -5.90025,5.90013 25.473616,25.47375 c 0.58775,0.58774 1.3695,0.91162 2.20088,0.91162 0.83137,0 1.613,-0.32388 2.20075,-0.91162 l 1.49862,-1.49851 c 1.21338,-1.21362 1.21338,-3.18812 0,-4.40175 z" />
        <path
           x="164.06783"
           y="34.03693"
           transform="rotate(45)"
           style="fill:#c4df64;stroke-width:0.124999"
           width="31.786446"
           height="8.3439198"
           id="rect13801"
           d="m 160.78993,35.262226 28.01821,0.284653 1.45576,6.638628 -28.95229,-0.172042 z"
           sodipodi:type="rect" />
        <path
           style="fill:#ffc44f;stroke-width:0.125"
           d="m 78.292748,133.7372 c 0.02256,0.0628 0.04918,0.12524 0.08528,0.18515 l 5.826355,9.65486 c 0.150286,0.24897 0.392688,0.42002 0.655316,0.46222 0.03761,0.006 0.07506,0.01 0.111892,0.0102 0.220673,0.004 0.4258,-0.087 0.568788,-0.2555 l 1.229824,-1.44878 z"
           id="path13803"
           inkscape:original-d="m 79.805933,135.07773 c 0.02137,0.0697 0.0475,0.13863 0.08487,0.20413 l 5.993881,10.48924 c 0.15362,0.26875 0.42374,0.45063 0.73075,0.49163 0.044,0.006 0.0881,0.009 0.13174,0.009 0.26176,0 0.515,-0.1035 0.7025,-0.291 l 1.62963,-1.6295 z" />
        <path
           style="fill:#d9dcdf;stroke-width:0.125"
           d="m 86.132341,141.69766 -1.776708,2.07427 23.008987,23.28418 c 0.51977,0.52598 1.14975,0.78692 1.77135,0.73503 0.61825,-0.0516 1.15263,-0.40649 1.50538,-0.9961 l 0.0785,-0.13115 z"
           id="path13805"
           inkscape:original-d="m 88.376684,143.6486 -2.332,2.33201 25.473616,25.47375 c 0.58775,0.58774 1.3695,0.91162 2.20088,0.91162 0.83137,0 1.613,-0.32388 2.20075,-0.91162 l 0.13125,-0.13126 z" />
        <path
           x="39.083836"
           y="-195.85301"
           transform="rotate(135)"
           style="fill:#afca62;stroke-width:0.124999"
           width="3.2978432"
           height="31.786446"
           id="rect13807"
           d="m 39.509583,-189.676 2.676599,-0.58692 -0.17203,28.95242 -2.722977,0.2104 z"
           sodipodi:type="rect" />
        <path
           style="fill:#68727e;stroke-width:0.125"
           d="m 78.629926,132.74404 c -0.34698,-0.21604 -0.763979,-0.18405 -1.018835,0.0792 -0.255797,0.26414 -0.284677,0.69545 -0.06945,1.05219 l 2.421318,4.01587 2.525089,-2.74542 z"
           id="path13809"
           inkscape:original-d="m 80.278383,133.92648 c -0.389125,-0.22237 -0.8785,-0.15687 -1.19525,0.16 -0.31675,0.31675 -0.382375,0.80638 -0.16,1.19525 l 2.494376,4.36512 3.22612,-3.22612 z" />
      </g>
    </g>
    <path
       style="fill:#98623a;fill-opacity:1;fill-rule:evenodd;stroke-width:5.65675;stroke-linecap:round;stop-color:#000000"
       d="m 119.51849,81.453429 -7.86881,-10.157597 -9.0673,1.161883 c -4.986969,0.639334 -9.067326,0.687066 -9.067326,0.108353 0,-1.584941 36.826226,-32.175283 37.715846,-32.056326 6.50196,0.869064 -0.7131,49.47292 -3.52289,50.569658 -0.24297,0.09195 -3.86158,-4.038317 -8.18952,-9.624894 z"
       id="path648-5"
       sodipodi:nodetypes="ccsssssc" />
    <path
       id="rect555-7-5-9"
       style="fill:#98623a;fill-opacity:1;fill-rule:evenodd;stroke-width:3.6368;stroke-linecap:round;stop-color:#000000"
       d="m 61.238753,177.68071 17.389392,-88.180337 15.241747,-31.27706 19.714288,-1.155686 9.41445,121.266433 -19.50205,31.6785 c -2.83226,15.81553 -10.110449,22.62531 -24.934773,28.4795 C 63.037339,223.60149 51.940035,204.43804 61.238753,177.68087 Z"
       sodipodi:nodetypes="ccccccccc" />
    <path
       id="rect555-7-6"
       style="fill:#e5be7a;fill-opacity:1;fill-rule:evenodd;stroke-width:3.6368;stroke-linecap:round;stop-color:#000000"
       d="m 113.58418,57.067412 c 38.58748,28.603448 61.81544,74.218438 90.43853,113.858198 -19.39868,6.24976 -39.66335,26.88644 -57.98219,15.19723 -11.1709,16.13912 -19.11495,48.36093 -28.03726,75.70661 C 100.12754,223.97483 82.06858,187.94717 67.741317,114.72192 67.417899,93.944617 66.045183,73.416112 73.930154,50.690485 c 13.227593,3.921977 26.266966,6.760786 39.654026,6.376927 z"
       sodipodi:nodetypes="ccccccc" />
    <path
       style="fill:#98623a;fill-opacity:1;fill-rule:evenodd;stroke-width:5.65675;stroke-linecap:round;stop-color:#000000"
       d="m 77.100577,88.91109 9.067407,1.161849 c 4.986922,0.639335 9.067184,0.687067 9.067184,0.108354 0,-1.58471 -36.957767,-32.838839 -37.715867,-32.056309 -4.490085,4.635138 5.009434,59.823296 10.222016,56.598296 9.318484,-14.759634 11.953369,-9.72765 9.35926,-25.810865 z"
       id="path648-3-0"
       sodipodi:nodetypes="csssccc" />
    <path
       style="fill:#f7b034;fill-opacity:1;fill-rule:evenodd;stroke-width:0.504207"
       d="m 105.41882,127.42408 -78.86798,-0.64273 c 0,0 -20.0729478,-23.91178 22.001447,-55.753867"
       id="path8455"
       sodipodi:nodetypes="ccc" />
    <path
       style="fill:#e29806;fill-opacity:1;stroke-width:0.418953"
       d="M 152.45454,69.324033 C 130.43216,15.146523 81.123809,37.105607 81.123809,37.105607 27.895675,61.37527 46.854732,116.15401 50.494771,119.15629 c 11.394825,9.39909 36.05366,9.08734 48.646584,9.24357 25.414985,0.31421 40.584885,-17.42006 40.584885,-17.42006 27.35842,-21.558356 12.7283,-41.655767 12.7283,-41.655767 z"
       id="path6937-3" />
    <path
       style="fill:#ffc364;stroke-width:0.418953"
       d="m 54.143383,61.276592 c 27.30271,-10.712403 61.374117,-3.986791 99.114987,34.007216 0,0 -1.23872,6.103592 -7.80093,10.359822 0,0 -21.07666,-19.003471 -45.505522,-31.871543 C 75.940732,61.12387 47.665152,71.432914 47.665152,71.432914 c 1.859622,-2.897326 2.516515,-8.601915 6.478231,-10.156322 z"
       id="path6941-0"
       sodipodi:nodetypes="cccccc" />
    <path
       style="fill:#ffc364;stroke-width:0.418953"
       d="m 69.664674,43.373866 c 27.302774,-10.712403 64.214816,-1.205439 84.979196,45.978623 0,0 1.18455,6.950123 -4.59624,12.728821 0,0 -15.74524,-28.767538 -34.99699,-44.954486 -19.251883,-16.186949 -53.969069,-6.310722 -53.969069,-6.310722 1.859622,-2.897309 4.621387,-5.887796 8.583103,-7.442236 z"
       id="path6941-0-2"
       sodipodi:nodetypes="ccczcc" />
    <path
       id="rect12298"
       style="fill:#98623a;fill-rule:evenodd;stroke-width:1.24792"
       d="m 118.44816,261.5334 84.43648,-90.71519 7.59866,13.25642 0.11479,111.95627 -75.80694,1.19397 z"
       sodipodi:nodetypes="cccccc" />
    <path
       style="fill:#98623a;fill-opacity:1;fill-rule:evenodd;stroke:#98623a;stroke-width:0.759879;stroke-dasharray:none;stroke-opacity:1"
       d="m 118.42924,261.09613 c 0,-0.1554 0.23757,-0.99181 0.52759,-1.85891 0.29029,-0.86714 2.90399,-9.26401 5.80842,-18.6597 7.87342,-25.47007 10.93757,-34.10492 15.53413,-43.77541 1.39556,-2.93618 3.25357,-6.4871 4.12883,-7.89104 l 1.5914,-2.55253 2.00718,1.02417 c 5.39254,2.75169 11.89456,3.04746 19.14927,0.8711 4.17979,-1.25387 7.57664,-2.82304 18.77424,-8.67274 10.287,-5.37396 15.54175,-7.87678 16.11863,-7.6772 0.1314,0.0456 -18.47076,20.01997 -41.33827,44.38776 -22.86749,24.36785 -41.74024,44.48103 -41.93936,44.696 -0.19905,0.21497 -0.36206,0.26371 -0.36206,0.10835 z"
       id="path12671" />
  </g>
</svg>
