<?xml version="1.0" encoding="UTF-8" standalone="no"?>
<svg
   width="77.766327mm"
   height="78.575676mm"
   viewBox="0 0 77.766327 78.575676"
   version="1.1"
   id="svg8"
   sodipodi:docname="Project Man.svg"
   inkscape:version="1.0.2-2 (e86c870879, 2021-01-15)"
   xmlns:inkscape="http://www.inkscape.org/namespaces/inkscape"
   xmlns:sodipodi="http://sodipodi.sourceforge.net/DTD/sodipodi-0.dtd"
   xmlns="http://www.w3.org/2000/svg"
   xmlns:svg="http://www.w3.org/2000/svg"
   xmlns:rdf="http://www.w3.org/1999/02/22-rdf-syntax-ns#"
   xmlns:cc="http://creativecommons.org/ns#"
   xmlns:dc="http://purl.org/dc/elements/1.1/">
  <defs
     id="defs2" />
  <sodipodi:namedview
     id="base"
     pagecolor="#ffffff"
     bordercolor="#666666"
     borderopacity="1.0"
     inkscape:pageopacity="0.0"
     inkscape:pageshadow="2"
     inkscape:zoom="0.49497475"
     inkscape:cx="390.92903"
     inkscape:cy="565.68543"
     inkscape:document-units="mm"
     inkscape:current-layer="layer1"
     inkscape:document-rotation="0"
     showgrid="false"
     inkscape:window-width="1366"
     inkscape:window-height="705"
     inkscape:window-x="-8"
     inkscape:window-y="-8"
     inkscape:window-maximized="1"
     inkscape:showpageshadow="2"
     inkscape:pagecheckerboard="0"
     inkscape:deskcolor="#d1d1d1" />
  <metadata
     id="metadata5">
    <rdf:RDF>
      <cc:Work
         rdf:about="">
        <dc:format>image/svg+xml</dc:format>
        <dc:type
           rdf:resource="http://purl.org/dc/dcmitype/StillImage" />
      </cc:Work>
    </rdf:RDF>
  </metadata>
  <g
     inkscape:label="Capa 1"
     inkscape:groupmode="layer"
     id="layer1"
     transform="translate(63.876665,-96.68131)">
    <path
       id="rect753-7-2"
       style="fill:#160d00;fill-opacity:1;fill-rule:evenodd;stroke-width:0.878487;stroke-linecap:round;stop-color:#000000"
       d="m -37.270061,164.23477 3.035601,-1.93804 3.547597,1.93804 v 4.61763 h -6.583198 c -1.349206,-1.4682 -1.354236,-3.00713 0,-4.61763 z"
       sodipodi:nodetypes="cccccc" />
    <path
       id="rect753-0-6-9"
       style="fill:#160d00;fill-opacity:1;fill-rule:evenodd;stroke-width:0.874277;stroke-linecap:round;stop-color:#000000"
       d="m -14.127962,170.63933 4.063526,-2.17878 2.4567302,2.17878 c 0.82545,1.33286 0.24315,3.01765 0,4.61764 h -6.5202562 c -0.63823,-1.53921 -2.166761,-3.07843 0,-4.61764 z"
       sodipodi:nodetypes="cccccc" />
    <path
       id="rect703-4-8-3"
       style="fill:#301f0e;fill-opacity:1;fill-rule:evenodd;stroke-width:0.878487;stroke-linecap:round;stop-color:#000000"
       d="m -35.99588,147.72493 c 3.00761,-0.95158 5.020737,-3.68996 5.415737,3.5216 l -0.10682,13.04698 c -2.466197,1.90415 -2.846257,0.37387 -5.309027,-1.17386 z"
       sodipodi:nodetypes="ccccc" />
    <path
       id="rect703-2-7"
       style="fill:#251106;fill-opacity:1;fill-rule:evenodd;stroke-width:0.878487;stroke-linecap:round;stop-color:#000000"
       d="m -33.59837,132.6089 5.269157,0.70631 -2.25418,20.07487 c -1.785977,-2.96324 -2.739287,2.858 -5.521437,-2.36601 l 0.48216,-14.05587 z"
       sodipodi:nodetypes="cccccc" />
    <path
       id="rect703-29"
       style="fill:#441e09;fill-opacity:1;fill-rule:evenodd;stroke-width:0.874277;stroke-linecap:round;stop-color:#000000"
       d="m -46.638094,133.52579 5.942027,0.95023 3.731986,2.36813 -0.0984,20.98181 -5.206997,0.73257 z"
       sodipodi:nodetypes="cccccc" />
    <path
       id="rect703-4-4"
       style="fill:#251106;fill-opacity:1;fill-rule:evenodd;stroke-width:0.874277;stroke-linecap:round;stop-color:#000000"
       d="m -43.341444,151.28338 c 5.066307,-5.36701 4.375307,-1.72498 6.432133,-1.17386 l -0.64028,20.59393 h -5.258287 c 1.762881,-6.6205 -0.0173,-12.10852 -0.533566,-19.42007 z"
       sodipodi:nodetypes="ccccc" />
    <path
       id="rect703-4-8-9-4-3"
       style="fill:#301f0e;fill-opacity:1;fill-rule:evenodd;stroke-width:0.878487;stroke-linecap:round;stop-color:#000000"
       d="m 2.6264876,145.41638 4.4589167,3.95936 2.85551,-2.51334 -3.67862,20.80477 -5.2279467,-0.92439 z"
       sodipodi:nodetypes="cccccc" />
    <path
       id="rect555-0-4-3"
       style="fill:#624e30;fill-opacity:1;fill-rule:evenodd;stroke-width:0.659099;stroke-linecap:round;stop-color:#000000"
       d="m -10.878186,113.37487 7.6190869,-6.96496 c 13.5709101,4.46031 14.1249801,8.37898 17.1487601,21.39015 l -3.9487467,19.06234 -2.85551,2.51334 -3.6821867,-2.8354 -9.3278433,-9.32847 -10.4397373,-0.0225 z"
       sodipodi:nodetypes="ccccccccc" />
    <path
       id="rect645-8"
       style="fill:#1b0f00;fill-opacity:1;fill-rule:evenodd;stroke-width:0.973551;stroke-linecap:round;stop-color:#000000"
       d="m 4.2044476,116.49132 c 20.0739174,2.48511 0.7104367,13.35273 9.4636634,50.75596 l -5.5641567,-8.90787 -1.84166,3.87883 C 3.7033276,145.92235 3.5638576,130.98744 4.2044476,116.49132 Z"
       sodipodi:nodetypes="ccccc" />
    <path
       style="fill:#1b0f00;fill-opacity:1;fill-rule:evenodd;stroke-width:1.02517;stroke-linecap:round;stop-color:#000000"
       d="m -49.120521,102.43828 -1.8381,-1.42821 -2.118051,0.16337 c -1.164906,0.0899 -2.118026,0.0966 -2.118026,0.0152 0,-0.22285 8.602274,-4.524008 8.810084,-4.507281 1.5188,0.122203 -0.16662,6.956141 -0.822921,7.110351 -0.0568,0.013 -0.90204,-0.56781 -1.912986,-1.35331 z"
       id="path648-5"
       sodipodi:nodetypes="ccsssssc" />
    <path
       id="rect555-7-5-9"
       style="fill:#22130c;fill-opacity:1;fill-rule:evenodd;stroke-width:0.659099;stroke-linecap:round;stop-color:#000000"
       d="m -62.734175,115.96832 4.062016,-12.3986 3.560341,-4.397712 4.605087,-0.162503 2.19912,17.050675 -4.555511,4.45416 c -0.661576,2.22374 -2.361716,3.18123 -5.824527,4.00436 -3.626386,-2.09369 -6.218613,-4.78817 -4.046526,-8.55036 z"
       sodipodi:nodetypes="ccccccccc" />
    <path
       id="rect555-5"
       style="fill:#5a3d1f;fill-opacity:1;fill-rule:evenodd;stroke-width:0.659099;stroke-linecap:round;stop-color:#000000"
       d="m -49.474471,111.88879 c 13.093931,0.26336 22.189738,7.18382 33.642708,0 l 9.9071373,25.32308 c -9.5629773,9.54781 -18.7755203,7.66311 -33.0065213,5.72939 -6.537507,-5.71395 -7.487677,-7.58687 -10.543324,-15.1412 z"
       sodipodi:nodetypes="cccccc" />
    <path
       id="rect555-0-1"
       style="fill:#441e09;fill-opacity:1;fill-rule:evenodd;stroke-width:0.659099;stroke-linecap:round;stop-color:#000000"
       d="m -2.9953191,106.40991 c -27.6896939,6.79886 -17.3240499,21.68456 -6.6851066,47.1995 L 3.4499076,137.7072 c 11.9180804,-17.15208 0.87498,-29.33585 -6.4452267,-31.29729 z"
       sodipodi:nodetypes="cccc" />
    <path
       id="rect555-7-6"
       style="fill:#130f06;fill-opacity:1;fill-rule:evenodd;stroke-width:0.659099;stroke-linecap:round;stop-color:#000000"
       d="m -50.506731,99.009483 c 9.013704,4.021787 14.439541,10.435487 21.125638,16.009037 -4.531367,0.87875 -9.265004,3.78037 -13.544121,2.13681 -2.60942,2.26924 -4.465081,6.79979 -6.549257,10.64473 -4.175617,-5.32255 -8.394038,-10.38822 -11.740754,-20.68406 -0.0756,-2.9214 -0.39621,-5.80781 1.44565,-9.003146 3.089857,0.55145 6.135737,0.950602 9.262844,0.896629 z"
       sodipodi:nodetypes="ccccccc" />
    <path
       id="rect753-8"
       style="fill:#160d00;fill-opacity:1;fill-rule:evenodd;stroke-width:0.874277;stroke-linecap:round;stop-color:#000000"
       d="m -44.069854,166.08582 4.063517,-3.32534 2.456746,3.32534 v 4.61763 h -6.520263 c -2.15397,-1.53921 -1.03105,-3.07842 0,-4.61763 z"
       sodipodi:nodetypes="cccccc" />
    <path
       id="rect703-4-8-9-6"
       style="fill:#301f0e;fill-opacity:1;fill-rule:evenodd;stroke-width:0.878487;stroke-linecap:round;stop-color:#000000"
       d="m -8.1663058,149.40554 2.3724368,3.43772 1.8950699,6.344 -3.7853267,11.52056 c -1.67693,0.497 -3.4461772,1.20502 -4.1607962,-0.49752 z"
       sodipodi:nodetypes="cccccc" />
    <path
       id="rect703-8-4"
       style="fill:#341707;fill-opacity:1;fill-rule:evenodd;stroke-width:0.874277;stroke-linecap:round;stop-color:#000000"
       d="m -14.919272,141.13795 7.5085862,-2.44002 7.14685343,2.68828 -3.51330673,18.18487 -5.4079067,-3.98023 z"
       sodipodi:nodetypes="cccccc" />
    <path
       id="rect753-0-6-8-5"
       style="fill:#160d00;fill-opacity:1;fill-rule:evenodd;stroke-width:0.874277;stroke-linecap:round;stop-color:#000000"
       d="m -0.25796237,167.17182 4.06353997,-2.17879 c 0.61757,1.63223 1.5689267,1.76245 2.4567167,2.17879 0.61004,1.64089 1.06984,3.25672 0,4.61763 h -6.52025667 c -0.4789467,-1.39552 -2.14090673,-2.43615 0,-4.61763 z"
       sodipodi:nodetypes="cccccc" />
    <path
       style="fill:#1b0f00;fill-opacity:1;fill-rule:evenodd;stroke-width:1.02517;stroke-linecap:round;stop-color:#000000"
       d="m -59.028975,103.48686 2.118047,0.16337 c 1.16491,0.0899 2.11803,0.0966 2.11803,0.0152 0,-0.22282 -8.633008,-4.617306 -8.810088,-4.50728 -1.048856,0.651725 1.170151,8.41146 2.387761,7.95801 2.17672,-2.07528 2.792196,-1.36776 2.18625,-3.62914 z"
       id="path648-3-0"
       sodipodi:nodetypes="csssccc" />
  </g>
</svg>
