<?xml version="1.0" encoding="UTF-8" standalone="no"?>
<!-- Created with Inkscape (http://www.inkscape.org/) -->

<svg
   width="210mm"
   height="297mm"
   viewBox="0 0 210 297"
   version="1.1"
   id="svg8328"
   inkscape:version="1.2.1 (9c6d41e410, 2022-07-14)"
   sodipodi:docname="horsePortrait.svg"
   xmlns:inkscape="http://www.inkscape.org/namespaces/inkscape"
   xmlns:sodipodi="http://sodipodi.sourceforge.net/DTD/sodipodi-0.dtd"
   xmlns:xlink="http://www.w3.org/1999/xlink"
   xmlns="http://www.w3.org/2000/svg"
   xmlns:svg="http://www.w3.org/2000/svg">
  <sodipodi:namedview
     id="namedview8330"
     pagecolor="#ffffff"
     bordercolor="#999999"
     borderopacity="1"
     inkscape:showpageshadow="0"
     inkscape:pageopacity="0"
     inkscape:pagecheckerboard="0"
     inkscape:deskcolor="#d1d1d1"
     inkscape:document-units="mm"
     showgrid="false"
     inkscape:zoom="0.82760241"
     inkscape:cx="396.32557"
     inkscape:cy="561.864"
     inkscape:window-width="1920"
     inkscape:window-height="1057"
     inkscape:window-x="-8"
     inkscape:window-y="-8"
     inkscape:window-maximized="1"
     inkscape:current-layer="layer1" />
  <defs
     id="defs8325">
    <linearGradient
       inkscape:collect="always"
       xlink:href="#linearGradient2447"
       id="linearGradient2575"
       x1="28.658773"
       y1="9.5069971"
       x2="59.384285"
       y2="-9.0936489"
       gradientUnits="userSpaceOnUse"
       gradientTransform="matrix(3.3072917,0,0,3.3072917,-2.0965912,44.661472)" />
    <linearGradient
       inkscape:collect="always"
       id="linearGradient2447">
      <stop
         style="stop-color:#ab116f;stop-opacity:1;"
         offset="0"
         id="stop2443" />
      <stop
         style="stop-color:#7a0b4d;stop-opacity:1;"
         offset="1"
         id="stop2445" />
    </linearGradient>
  </defs>
  <g
     inkscape:label="Capa 1"
     inkscape:groupmode="layer"
     id="layer1">
    <path
       d="m 88.135574,257.10418 v -28.82427 a 4.3620558,4.32364 0 0 1 0.130869,-1.00885 C 75.849124,217.18257 56.394358,205.5808 36.648784,202.43896 c -4.812804,-0.74943 -9.014916,2.76713 -7.982563,6.74488 a 141.51963,140.2733 0 0 1 4.62378,33.5082 141.51963,140.2733 0 0 1 -4.62378,33.50822 c -1.032353,3.96333 3.169759,7.49431 7.982563,6.74487 19.731031,-3.12743 39.258502,-14.70037 51.617659,-24.8321 a 4.3620558,4.32364 0 0 1 -0.130869,-1.00885 z"
       fill="#cb525f"
       id="path974"
       style="fill:#9f146f;fill-opacity:1;stroke:#5c232a;stroke-width:0.18095;stroke-opacity:1" />
    <path
       d="m 125.94005,257.10418 v -28.82427 a 4.3620558,4.32364 0 0 0 -0.13087,-1.00885 c 12.41732,-10.08849 31.87209,-21.69026 51.61766,-24.8321 4.8128,-0.74943 9.01492,2.76713 7.98257,6.74488 a 141.51963,140.2733 0 0 0 -4.62377,33.5082 141.51963,140.2733 0 0 0 4.62378,33.50822 c 1.03235,3.96333 -3.16977,7.49431 -7.98257,6.74487 -19.73103,-3.12743 -39.2585,-14.70037 -51.61766,-24.8321 a 4.3620558,4.32364 0 0 0 0.13087,-1.00885 z"
       fill="#cb525f"
       id="path978"
       style="fill:#9f146f;fill-opacity:1;stroke:#5c232a;stroke-width:0.18095;stroke-opacity:1" />
    <path
       d="m 88.135574,223.95627 h 37.804476 v 37.47155 H 88.135574 Z"
       fill="#953745"
       id="path980"
       style="fill:#630c45;fill-opacity:1;stroke:#5c232a;stroke-width:0.18095;stroke-opacity:1" />
    <g
       fill="#e5be7a"
       id="g10"
       transform="matrix(3.3072917,0,0,3.3072917,-2.0965912,44.661472)">
      <path
         d="m 12.6,19.7 c -0.6,-7.1 3.7,-8 6.1,-7.5 2.4,0.5 4.3,6.4 1.7,13 -3.6,9.1 -10.5,10.7 -10.5,10.7 0,0 3.6,-6.9 2.7,-16.2"
         id="path2" />
      <path
         d="m 14.9,27.5 c -0.6,-7.1 3.7,-8 6.1,-7.5 2.4,0.5 4.4,6.4 1.7,13 -3.6,9.2 -13.1,11.7 -13.1,11.7 0,0 6.1,-7.9 5.3,-17.2"
         id="path4" />
      <path
         d="m 16.5,37.4 c -0.6,-7.1 3.7,-8 6.1,-7.5 2.4,0.5 4.3,6.4 1.7,13 -3.6,9.2 -15.6,12.8 -15.6,12.8 0,0 8.6,-8.9 7.8,-18.3"
         id="path6" />
      <path
         d="m 53.8,19.9 c -1.4,-7 -6.2,-8.2 -8.6,-7.7 -2.4,0.5 -4.3,6.4 -1.7,13 3.6,9.1 4.1,15 4.1,15 0,0 8.4,-9.1 6.2,-20.3"
         id="path8" />
    </g>
    <path
       d="m 178.81226,61.52866 c 0.33073,9.591146 -0.99218,17.197917 -4.29947,21.828125 -4.63021,2.976563 -12.89844,4.299479 -22.82032,4.299479 -0.33073,-9.591145 0.99219,-17.197917 4.29948,-21.828125 4.96094,-2.976563 12.89844,-4.299479 22.82031,-4.299479"
       fill="#3e4347"
       id="path14"
       style="stroke-width:3.30729" />
    <path
       d="m 158.63779,140.57293 c 0,12.23698 -13.5599,54.23959 -13.5599,72.09896 0,0 -16.86719,1.65365 -41.34115,1.65365 -23.812497,0 -40.679685,-0.66146 -40.679685,-0.66146 0,-18.1901 -14.221354,-60.52344 -14.221354,-72.76042 0,-16.20573 -1.653646,-33.40365 15.213542,-55.5625 3.96875,-5.291666 4.960938,-11.90625 39.687497,-11.90625 34.39584,0 36.71094,5.622396 40.34896,9.921875 16.53646,19.843755 14.55209,35.718755 14.55209,57.216145"
       fill="#c1875d"
       id="path20"
       style="stroke-width:3.30729" />
    <path
       d="m 146.07008,226.23179 c 0,16.20573 -9.92188,23.48177 -42.33334,23.48177 -32.411455,0 -42.33333,-7.27604 -42.33333,-23.48177 0,-16.20573 0.992187,-35.05729 42.33333,-35.05729 41.34115,0 42.33334,18.85156 42.33334,35.05729"
       fill="#ffe2b3"
       id="path22"
       style="stroke-width:3.30729" />
    <g
       fill="#3e4347"
       id="g28"
       transform="matrix(3.3072917,0,0,3.3072917,-2.0965912,44.661472)">
      <path
         d="m 49,26.7 c 0,2.2 -1.5,4 -3.2,4 -1.8,0 -3.2,-1.8 -3.2,-4 0,-2.2 1.5,-4 3.2,-4 1.7,0 3.2,1.8 3.2,4"
         id="path24" />
      <ellipse
         cx="18.200001"
         cy="26.700001"
         rx="3.2"
         ry="4"
         id="ellipse26" />
    </g>
    <g
       fill="#ffe2b3"
       id="g34"
       transform="matrix(3.3072917,0,0,3.3072917,-2.0965912,44.661472)">
      <path
         d="m 40.5,43.3 c -2.1,-1.4 -5.2,1.1 -6.8,5.6 -1.6,4.5 -1.2,9.2 1,10.6 2.1,1.4 5.2,-1.1 6.8,-5.6 1.6,-4.4 1.2,-9.2 -1,-10.6"
         id="path30" />
      <path
         d="m 23.4,43.3 c -2.1,1.4 -2.6,6.1 -1,10.6 1.6,4.5 4.6,7 6.8,5.6 2.1,-1.4 2.6,-6.1 1,-10.6 -1.6,-4.4 -4.6,-6.9 -6.8,-5.6"
         id="path32" />
    </g>
    <path
       d="m 89.18466,108.16147 c 0,-27.781247 6.614583,-33.403643 14.55208,-33.403643 7.9375,0 14.55209,5.622396 14.55209,33.403643 0,27.78125 -14.55209,67.46875 -14.55209,67.46875 0,0 -14.55208,-39.6875 -14.55208,-67.46875"
       fill="#ffffff"
       id="path36"
       style="stroke-width:3.30729" />
    <g
       fill="#3e4347"
       id="g42"
       transform="matrix(3.3072917,0,0,3.3072917,-2.0965912,44.661472)">
      <path
         d="m 39.8,46 c -1.6,-1 -3.8,0.8 -5,4.1 -1.2,3.3 -0.8,6.8 0.7,7.8 1.6,1 3.8,-0.8 5,-4.1 1.2,-3.3 0.8,-6.8 -0.7,-7.8"
         id="path38" />
      <path
         d="m 24.2,46 c -1.6,1 -1.9,4.5 -0.7,7.8 1.2,3.3 3.4,5.1 5,4.1 1.6,-1 1.9,-4.5 0.7,-7.8 C 28,46.8 25.8,45 24.2,46"
         id="path40" />
    </g>
    <path
       d="M 149.04664,76.411473 C 124.90341,42.346368 29.653409,53.26043 29.653409,132.63543 c 0,0 22.820313,-29.10417 61.184897,-37.703124 0,0 -15.213542,17.528644 -33.072917,31.088544 0,0 37.372396,-9.59115 60.523441,-31.088544 0,0 2.64583,15.544274 -28.111983,25.796874 -0.330729,0 88.635413,-2.3151 58.869793,-44.317707"
       fill="#e5be7a"
       id="path44"
       style="stroke-width:3.30729" />
    <path
       class="st0"
       d="M 207.12934,77.909557 C 205.97964,66.631278 184.64348,58.834338 153.63142,56.476653 150.66643,39.093941 147.23635,19.03687 146.23507,13.585212 143.93526,1.0989474 127.48934,-5.8839856 115.27427,3.1205294 c -6.40787,4.721986 -12.13734,5.057676 -15.17344,5.057676 -3.036091,0 -6.407875,0.671793 -15.173438,-5.057676 C 72.227805,-5.1865606 56.266402,1.0985334 53.973208,13.585212 52.74579,20.244859 47.901021,48.660695 44.716512,67.412626 14.201785,76.016959 -5.6097192,88.128675 -4.4405912,99.542551 -2.6835922,116.7508 46.105575,125.86487 104.52557,119.88984 162.95881,113.9148 208.89254,95.124423 207.12934,77.909557 Z M 50.200829,82.024241 53.572613,64.493114 c 0,0 60.022387,9.437357 93.741047,-8.093769 l 3.37179,14.837751 c 4.1e-4,-4.14e-4 -36.41866,22.924905 -100.484621,10.787145 z"
       id="path177"
       style="fill:url(#linearGradient2575);fill-opacity:1;stroke:#5c232a;stroke-width:0.413411;stroke-opacity:1" />
    <path
       style="fill:#f062b8;fill-opacity:1;fill-rule:evenodd;stroke:#f062b8;stroke-width:1.72228;stroke-opacity:1"
       d="M 74.003159,84.932518 C 68.706634,84.462119 59.383018,83.331726 55.154454,82.647308 l -4.676835,-0.756973 1.565937,-8.247552 c 0.861268,-4.536152 1.694474,-8.375359 1.851577,-8.531569 0.157097,-0.15621 2.438761,-0.01988 5.070353,0.302981 14.466897,1.774825 37.438628,2.187485 50.633534,0.909571 13.06987,-1.265801 24.60708,-3.914931 33.63777,-7.723772 2.11339,-0.891357 3.88202,-1.572607 3.9303,-1.513888 0.0483,0.05872 0.80284,3.261604 1.67683,7.117522 l 1.58906,7.010763 -5.06367,2.395675 c -10.3657,4.90412 -23.5883,8.550588 -38.10695,10.508954 -5.01261,0.676133 -28.372505,1.247501 -33.259201,0.813498 z"
       id="path967" />
  </g>
</svg>
