<?xml version="1.0" encoding="UTF-8" standalone="no"?>
<!-- Created with Inkscape (http://www.inkscape.org/) -->

<svg
   width="210mm"
   height="297mm"
   viewBox="0 0 210 297"
   version="1.1"
   id="svg8328"
   inkscape:version="1.2.1 (9c6d41e410, 2022-07-14)"
   sodipodi:docname="horsePortrait.svg"
   xmlns:inkscape="http://www.inkscape.org/namespaces/inkscape"
   xmlns:sodipodi="http://sodipodi.sourceforge.net/DTD/sodipodi-0.dtd"
   xmlns:xlink="http://www.w3.org/1999/xlink"
   xmlns="http://www.w3.org/2000/svg"
   xmlns:svg="http://www.w3.org/2000/svg">
  <sodipodi:namedview
     id="namedview8330"
     pagecolor="#ffffff"
     bordercolor="#999999"
     borderopacity="1"
     inkscape:showpageshadow="0"
     inkscape:pageopacity="0"
     inkscape:pagecheckerboard="0"
     inkscape:deskcolor="#d1d1d1"
     inkscape:document-units="mm"
     showgrid="false"
     inkscape:zoom="0.41380121"
     inkscape:cx="19.332955"
     inkscape:cy="782.98467"
     inkscape:window-width="1920"
     inkscape:window-height="1057"
     inkscape:window-x="-8"
     inkscape:window-y="-8"
     inkscape:window-maximized="1"
     inkscape:current-layer="layer1" />
  <defs
     id="defs8325">
    <linearGradient
       inkscape:collect="always"
       xlink:href="#linearGradient2447"
       id="linearGradient2575"
       x1="28.658773"
       y1="9.5069971"
       x2="59.384285"
       y2="-9.0936489"
       gradientUnits="userSpaceOnUse"
       gradientTransform="matrix(3.3072917,0,0,3.3072917,-13.605744,47.219061)" />
    <linearGradient
       inkscape:collect="always"
       id="linearGradient2447">
      <stop
         style="stop-color:#ab116f;stop-opacity:1;"
         offset="0"
         id="stop2443" />
      <stop
         style="stop-color:#7a0b4d;stop-opacity:1;"
         offset="1"
         id="stop2445" />
    </linearGradient>
  </defs>
  <g
     inkscape:label="Capa 1"
     inkscape:groupmode="layer"
     id="layer1">
    <g
       id="g971"
       transform="translate(17.903122,0.6393972)"
       inkscape:export-filename="horse-portrait.png"
       inkscape:export-xdpi="96"
       inkscape:export-ydpi="96">
      <rect
         style="fill:#ffffff;fill-rule:evenodd;stroke:none;stroke-width:1.09974"
         id="rect390"
         width="262.15286"
         height="300.51666"
         x="-38.363819"
         y="-1.2787945" />
      <path
         d="M 76.626426,259.66177 V 230.8375 a 4.3620558,4.32364 0 0 1 0.13087,-1.00885 c -12.41732,-10.08849 -31.87209,-21.69026 -51.61766,-24.8321 -4.81281,-0.74943 -9.01492,2.76713 -7.98256,6.74488 a 141.51963,140.2733 0 0 1 4.62378,33.5082 141.51963,140.2733 0 0 1 -4.62378,33.50822 c -1.03236,3.96333 3.16975,7.49431 7.98256,6.74487 19.73103,-3.12743 39.2585,-14.70037 51.61766,-24.8321 a 4.3620558,4.32364 0 0 1 -0.13087,-1.00885 z"
         fill="#cb525f"
         id="path974"
         style="fill:#9f146f;fill-opacity:1;stroke:#5c232a;stroke-width:0.18095;stroke-opacity:1" />
      <path
         d="M 114.4309,259.66177 V 230.8375 a 4.3620558,4.32364 0 0 0 -0.13087,-1.00885 c 12.41732,-10.08849 31.87209,-21.69026 51.61766,-24.8321 4.8128,-0.74943 9.01492,2.76713 7.98257,6.74488 a 141.51963,140.2733 0 0 0 -4.62377,33.5082 141.51963,140.2733 0 0 0 4.62378,33.50822 c 1.03235,3.96333 -3.16977,7.49431 -7.98257,6.74487 -19.73103,-3.12743 -39.2585,-14.70037 -51.61766,-24.8321 a 4.3620558,4.32364 0 0 0 0.13087,-1.00885 z"
         fill="#cb525f"
         id="path978"
         style="fill:#9f146f;fill-opacity:1;stroke:#5c232a;stroke-width:0.18095;stroke-opacity:1" />
      <path
         d="M 76.626426,226.51386 H 114.4309 v 37.47155 H 76.626426 Z"
         fill="#953745"
         id="path980"
         style="fill:#630c45;fill-opacity:1;stroke:#5c232a;stroke-width:0.18095;stroke-opacity:1" />
      <g
         fill="#e5be7a"
         id="g10"
         transform="matrix(3.3072917,0,0,3.3072917,-13.605744,47.219061)">
        <path
           d="m 12.6,19.7 c -0.6,-7.1 3.7,-8 6.1,-7.5 2.4,0.5 4.3,6.4 1.7,13 -3.6,9.1 -10.5,10.7 -10.5,10.7 0,0 3.6,-6.9 2.7,-16.2"
           id="path2" />
        <path
           d="m 14.9,27.5 c -0.6,-7.1 3.7,-8 6.1,-7.5 2.4,0.5 4.4,6.4 1.7,13 -3.6,9.2 -13.1,11.7 -13.1,11.7 0,0 6.1,-7.9 5.3,-17.2"
           id="path4" />
        <path
           d="m 16.5,37.4 c -0.6,-7.1 3.7,-8 6.1,-7.5 2.4,0.5 4.3,6.4 1.7,13 -3.6,9.2 -15.6,12.8 -15.6,12.8 0,0 8.6,-8.9 7.8,-18.3"
           id="path6" />
        <path
           d="m 53.8,19.9 c -1.4,-7 -6.2,-8.2 -8.6,-7.7 -2.4,0.5 -4.3,6.4 -1.7,13 3.6,9.1 4.1,15 4.1,15 0,0 8.4,-9.1 6.2,-20.3"
           id="path8" />
      </g>
      <path
         d="m 167.30311,64.086249 c 0.33073,9.591146 -0.99218,17.197917 -4.29947,21.828125 -4.63021,2.976563 -12.89844,4.299479 -22.82032,4.299479 -0.33073,-9.591145 0.99219,-17.197917 4.29948,-21.828125 4.96094,-2.976563 12.89844,-4.299479 22.82031,-4.299479"
         fill="#3e4347"
         id="path14"
         style="stroke-width:3.30729" />
      <path
         d="m 147.12864,143.13052 c 0,12.23698 -13.5599,54.23959 -13.5599,72.09896 0,0 -16.86719,1.65365 -41.341154,1.65365 -23.81249,0 -40.67968,-0.66146 -40.67968,-0.66146 0,-18.1901 -14.22135,-60.52344 -14.22135,-72.76042 0,-16.20573 -1.65365,-33.40365 15.21354,-55.562501 3.96875,-5.291666 4.96094,-11.90625 39.68749,-11.90625 34.395844,0 36.710944,5.622396 40.348964,9.921875 16.53646,19.843756 14.55209,35.718756 14.55209,57.216146"
         fill="#c1875d"
         id="path20"
         style="stroke-width:3.30729" />
      <path
         d="m 134.56093,228.78938 c 0,16.20573 -9.92188,23.48177 -42.333344,23.48177 -32.41145,0 -42.33333,-7.27604 -42.33333,-23.48177 0,-16.20573 0.99219,-35.05729 42.33333,-35.05729 41.341154,0 42.333344,18.85156 42.333344,35.05729"
         fill="#ffe2b3"
         id="path22"
         style="stroke-width:3.30729" />
      <g
         fill="#3e4347"
         id="g28"
         transform="matrix(3.3072917,0,0,3.3072917,-13.605744,47.219061)">
        <path
           d="m 49,26.7 c 0,2.2 -1.5,4 -3.2,4 -1.8,0 -3.2,-1.8 -3.2,-4 0,-2.2 1.5,-4 3.2,-4 1.7,0 3.2,1.8 3.2,4"
           id="path24" />
        <ellipse
           cx="18.200001"
           cy="26.700001"
           rx="3.2"
           ry="4"
           id="ellipse26" />
      </g>
      <g
         fill="#ffe2b3"
         id="g34"
         transform="matrix(3.3072917,0,0,3.3072917,-13.605744,47.219061)">
        <path
           d="m 40.5,43.3 c -2.1,-1.4 -5.2,1.1 -6.8,5.6 -1.6,4.5 -1.2,9.2 1,10.6 2.1,1.4 5.2,-1.1 6.8,-5.6 1.6,-4.4 1.2,-9.2 -1,-10.6"
           id="path30" />
        <path
           d="m 23.4,43.3 c -2.1,1.4 -2.6,6.1 -1,10.6 1.6,4.5 4.6,7 6.8,5.6 2.1,-1.4 2.6,-6.1 1,-10.6 -1.6,-4.4 -4.6,-6.9 -6.8,-5.6"
           id="path32" />
      </g>
      <path
         d="m 77.675506,110.71906 c 0,-27.781248 6.61459,-33.403644 14.55208,-33.403644 7.937504,0 14.552094,5.622396 14.552094,33.403644 0,27.78125 -14.552094,67.46875 -14.552094,67.46875 0,0 -14.55208,-39.6875 -14.55208,-67.46875"
         fill="#ffffff"
         id="path36"
         style="stroke-width:3.30729" />
      <g
         fill="#3e4347"
         id="g42"
         transform="matrix(3.3072917,0,0,3.3072917,-13.605744,47.219061)">
        <path
           d="m 39.8,46 c -1.6,-1 -3.8,0.8 -5,4.1 -1.2,3.3 -0.8,6.8 0.7,7.8 1.6,1 3.8,-0.8 5,-4.1 1.2,-3.3 0.8,-6.8 -0.7,-7.8"
           id="path38" />
        <path
           d="m 24.2,46 c -1.6,1 -1.9,4.5 -0.7,7.8 1.2,3.3 3.4,5.1 5,4.1 1.6,-1 1.9,-4.5 0.7,-7.8 C 28,46.8 25.8,45 24.2,46"
           id="path40" />
      </g>
      <path
         d="M 137.53749,78.969062 C 113.39426,44.903957 18.144256,55.818019 18.144256,135.19302 c 0,0 22.82032,-29.10417 61.1849,-37.703126 0,0 -15.21354,17.528646 -33.07292,31.088546 0,0 37.3724,-9.59115 60.523444,-31.088546 0,0 2.64583,15.544276 -28.111984,25.796876 -0.33073,0 88.635414,-2.3151 58.869794,-44.317708"
         fill="#e5be7a"
         id="path44"
         style="stroke-width:3.30729" />
      <path
         class="st0"
         d="M 195.62019,80.467146 C 194.47049,69.188867 173.13433,61.391927 142.12227,59.034242 139.15728,41.65153 135.7272,21.594459 134.72592,16.142801 132.42611,3.6565366 115.98019,-3.3263967 103.76512,5.6781186 97.357246,10.400105 91.627776,10.735795 88.591676,10.735795 c -3.03609,0 -6.40787,0.671793 -15.17343,-5.0576764 -12.69959,-8.3070903 -28.66099,-2.021996 -30.95419,10.4646824 -1.22742,6.659647 -6.07218,35.075483 -9.25669,53.827414 -30.5147302,8.604333 -50.32623,20.716049 -49.15711,32.129925 1.757,17.20825 50.54617,26.32232 108.96616,20.34729 C 151.44966,116.47239 197.38339,97.682014 195.62019,80.467146 Z M 38.691676,84.58183 42.063466,67.050703 c 0,0 60.022384,9.437357 93.741044,-8.093769 l 3.37179,14.837751 c 4.1e-4,-4.14e-4 -36.41866,22.924909 -100.484624,10.787145 z"
         id="path177"
         style="fill:url(#linearGradient2575);fill-opacity:1;stroke:#5c232a;stroke-width:0.413411;stroke-opacity:1" />
      <path
         style="fill:#f062b8;fill-opacity:1;fill-rule:evenodd;stroke:#f062b8;stroke-width:1.72228;stroke-opacity:1"
         d="m 62.494006,87.490107 c -5.29652,-0.470399 -14.62014,-1.600792 -18.8487,-2.28521 l -4.67684,-0.756973 1.56594,-8.247552 c 0.86127,-4.536152 1.69447,-8.375359 1.85158,-8.531569 0.15709,-0.15621 2.43876,-0.01988 5.07035,0.302981 14.4669,1.774825 37.43863,2.187485 50.63353,0.909571 13.069874,-1.265801 24.607084,-3.914931 33.637774,-7.723772 2.11339,-0.891357 3.88202,-1.572607 3.9303,-1.513888 0.0483,0.05872 0.80284,3.261604 1.67683,7.117522 l 1.58906,7.010763 -5.06367,2.395675 c -10.3657,4.90412 -23.5883,8.550588 -38.106954,10.508954 -5.01261,0.676133 -28.3725,1.247501 -33.2592,0.813498 z"
         id="path967" />
    </g>
  </g>
</svg>
